# xmcd
#
# Track frame offsets: 
#        150
#        15814
#        31392
#        50492
#        66412
#        71953
#        85744
#        106790
#        128019
#        138409
#        143267
#        166618
#
# Disc length: 2509 seconds
#
# Revision: 0
# Processed by: cddbd v1.5.2PL0 Copyright (c) Steve Scherf et al.
# Submitted via: ExactAudioCopy v0.99pb5
#
DISCID=9309cb0c
DTITLE=The Wild Turkeys - Unplucked
DYEAR=2007
DGENRE=Country
TTITLE0=Hayfield Crooning
TTITLE1=Durdy House Blues
TTITLE2=Cheap Old Truck
TTITLE3=Askin' Fer Trouble
TTITLE4=Bi-polar Static Inflections
TTITLE5=Lights Out Charlie
TTITLE6=Walt's Waltz
TTITLE7=Blasted to Smithereens
TTITLE8=I Sat On An Ant Hill And Now Red Ants Are Biting Me In The Tro
TTITLE8=users
TTITLE9=Something For The Birds
TTITLE10=Pole Cat Holler
TTITLE11=Pond Water Guzzlers
EXTD=
EXTT0=
EXTT1=
EXTT2=
EXTT3=
EXTT4=
EXTT5=
EXTT6=
EXTT7=
EXTT8=
EXTT9=
EXTT10=
EXTT11=
PLAYORDER=
